<mxfile host="app.diagrams.net" modified="2022-10-27T10:59:41.653Z" agent="5.0 (Macintosh; Intel Mac OS X 10_15_7) AppleWebKit/605.1.15 (KHTML, like Gecko) Version/15.3 Safari/605.1.15" etag="2suqt5iDoN9nnr__iwcf" version="20.5.1" type="github">
  <diagram id="C5RBs43oDa-KdzZeNtuy" name="Page-1">
    <mxGraphModel dx="1935" dy="647" grid="1" gridSize="10" guides="1" tooltips="1" connect="1" arrows="1" fold="1" page="1" pageScale="1" pageWidth="827" pageHeight="1169" math="0" shadow="0">
      <root>
        <mxCell id="WIyWlLk6GJQsqaUBKTNV-0" />
        <mxCell id="WIyWlLk6GJQsqaUBKTNV-1" parent="WIyWlLk6GJQsqaUBKTNV-0" />
        <mxCell id="nfMXEgDPx6NqNk5T6Ewk-1" value="Pokemon" style="rounded=0;whiteSpace=wrap;html=1;strokeColor=#666666;fillColor=#f5f5f5;fontColor=#333333;" vertex="1" parent="WIyWlLk6GJQsqaUBKTNV-1">
          <mxGeometry x="120" y="110" width="120" height="50" as="geometry" />
        </mxCell>
        <mxCell id="nfMXEgDPx6NqNk5T6Ewk-4" style="edgeStyle=orthogonalEdgeStyle;rounded=0;orthogonalLoop=1;jettySize=auto;html=1;exitX=0.5;exitY=0;exitDx=0;exitDy=0;entryX=0.5;entryY=1;entryDx=0;entryDy=0;" edge="1" parent="WIyWlLk6GJQsqaUBKTNV-1" source="nfMXEgDPx6NqNk5T6Ewk-2" target="nfMXEgDPx6NqNk5T6Ewk-1">
          <mxGeometry relative="1" as="geometry" />
        </mxCell>
        <mxCell id="nfMXEgDPx6NqNk5T6Ewk-2" value="Tropius" style="rounded=0;whiteSpace=wrap;html=1;strokeColor=#d79b00;fillColor=#ffe6cc;" vertex="1" parent="WIyWlLk6GJQsqaUBKTNV-1">
          <mxGeometry x="260" y="210" width="120" height="30" as="geometry" />
        </mxCell>
        <mxCell id="nfMXEgDPx6NqNk5T6Ewk-7" style="edgeStyle=orthogonalEdgeStyle;rounded=0;orthogonalLoop=1;jettySize=auto;html=1;exitX=0.5;exitY=0;exitDx=0;exitDy=0;entryX=0.5;entryY=1;entryDx=0;entryDy=0;" edge="1" parent="WIyWlLk6GJQsqaUBKTNV-1" source="nfMXEgDPx6NqNk5T6Ewk-5" target="nfMXEgDPx6NqNk5T6Ewk-1">
          <mxGeometry relative="1" as="geometry" />
        </mxCell>
        <mxCell id="nfMXEgDPx6NqNk5T6Ewk-5" value="Grimer" style="rounded=0;whiteSpace=wrap;html=1;strokeColor=#d6b656;fillColor=#fff2cc;" vertex="1" parent="WIyWlLk6GJQsqaUBKTNV-1">
          <mxGeometry x="120" y="210" width="120" height="30" as="geometry" />
        </mxCell>
        <mxCell id="nfMXEgDPx6NqNk5T6Ewk-9" style="edgeStyle=orthogonalEdgeStyle;rounded=0;orthogonalLoop=1;jettySize=auto;html=1;exitX=0.5;exitY=0;exitDx=0;exitDy=0;entryX=0.5;entryY=1;entryDx=0;entryDy=0;" edge="1" parent="WIyWlLk6GJQsqaUBKTNV-1" source="nfMXEgDPx6NqNk5T6Ewk-8" target="nfMXEgDPx6NqNk5T6Ewk-1">
          <mxGeometry relative="1" as="geometry" />
        </mxCell>
        <mxCell id="nfMXEgDPx6NqNk5T6Ewk-8" value="Oddish" style="rounded=0;whiteSpace=wrap;html=1;strokeColor=#b85450;fillColor=#f8cecc;" vertex="1" parent="WIyWlLk6GJQsqaUBKTNV-1">
          <mxGeometry x="-20" y="210" width="120" height="30" as="geometry" />
        </mxCell>
        <mxCell id="nfMXEgDPx6NqNk5T6Ewk-11" style="edgeStyle=orthogonalEdgeStyle;rounded=0;orthogonalLoop=1;jettySize=auto;html=1;exitX=0.5;exitY=0;exitDx=0;exitDy=0;entryX=0.5;entryY=1;entryDx=0;entryDy=0;" edge="1" parent="WIyWlLk6GJQsqaUBKTNV-1" source="nfMXEgDPx6NqNk5T6Ewk-10" target="nfMXEgDPx6NqNk5T6Ewk-5">
          <mxGeometry relative="1" as="geometry" />
        </mxCell>
        <mxCell id="nfMXEgDPx6NqNk5T6Ewk-10" value="Muk" style="rounded=0;whiteSpace=wrap;html=1;strokeColor=#d6b656;fillColor=#fff2cc;" vertex="1" parent="WIyWlLk6GJQsqaUBKTNV-1">
          <mxGeometry x="120" y="290" width="120" height="30" as="geometry" />
        </mxCell>
        <mxCell id="nfMXEgDPx6NqNk5T6Ewk-13" style="edgeStyle=orthogonalEdgeStyle;rounded=0;orthogonalLoop=1;jettySize=auto;html=1;exitX=0.5;exitY=0;exitDx=0;exitDy=0;entryX=0.5;entryY=1;entryDx=0;entryDy=0;" edge="1" parent="WIyWlLk6GJQsqaUBKTNV-1" source="nfMXEgDPx6NqNk5T6Ewk-12" target="nfMXEgDPx6NqNk5T6Ewk-8">
          <mxGeometry relative="1" as="geometry" />
        </mxCell>
        <mxCell id="nfMXEgDPx6NqNk5T6Ewk-12" value="Gloom" style="rounded=0;whiteSpace=wrap;html=1;strokeColor=#b85450;fillColor=#f8cecc;" vertex="1" parent="WIyWlLk6GJQsqaUBKTNV-1">
          <mxGeometry x="-20" y="290" width="120" height="30" as="geometry" />
        </mxCell>
        <mxCell id="nfMXEgDPx6NqNk5T6Ewk-15" style="edgeStyle=orthogonalEdgeStyle;rounded=0;orthogonalLoop=1;jettySize=auto;html=1;exitX=0.5;exitY=0;exitDx=0;exitDy=0;entryX=0.5;entryY=1;entryDx=0;entryDy=0;" edge="1" parent="WIyWlLk6GJQsqaUBKTNV-1" source="nfMXEgDPx6NqNk5T6Ewk-14" target="nfMXEgDPx6NqNk5T6Ewk-12">
          <mxGeometry relative="1" as="geometry" />
        </mxCell>
        <mxCell id="nfMXEgDPx6NqNk5T6Ewk-14" value="Vileplume" style="rounded=0;whiteSpace=wrap;html=1;strokeColor=#b85450;fillColor=#f8cecc;" vertex="1" parent="WIyWlLk6GJQsqaUBKTNV-1">
          <mxGeometry x="-20" y="370" width="120" height="30" as="geometry" />
        </mxCell>
        <mxCell id="nfMXEgDPx6NqNk5T6Ewk-16" value="Move" style="rounded=0;whiteSpace=wrap;html=1;" vertex="1" parent="WIyWlLk6GJQsqaUBKTNV-1">
          <mxGeometry x="560" y="110" width="120" height="50" as="geometry" />
        </mxCell>
        <mxCell id="nfMXEgDPx6NqNk5T6Ewk-18" style="edgeStyle=orthogonalEdgeStyle;rounded=0;orthogonalLoop=1;jettySize=auto;html=1;exitX=0.5;exitY=0;exitDx=0;exitDy=0;entryX=0.5;entryY=1;entryDx=0;entryDy=0;" edge="1" parent="WIyWlLk6GJQsqaUBKTNV-1" source="nfMXEgDPx6NqNk5T6Ewk-17" target="nfMXEgDPx6NqNk5T6Ewk-16">
          <mxGeometry relative="1" as="geometry" />
        </mxCell>
        <mxCell id="nfMXEgDPx6NqNk5T6Ewk-17" value="DamageMove" style="rounded=0;whiteSpace=wrap;html=1;strokeColor=#666666;fillColor=#f5f5f5;fontColor=#333333;" vertex="1" parent="WIyWlLk6GJQsqaUBKTNV-1">
          <mxGeometry x="560" y="210" width="120" height="30" as="geometry" />
        </mxCell>
        <mxCell id="nfMXEgDPx6NqNk5T6Ewk-54" style="edgeStyle=orthogonalEdgeStyle;rounded=0;orthogonalLoop=1;jettySize=auto;html=1;exitX=0;exitY=0.5;exitDx=0;exitDy=0;entryX=1;entryY=0.5;entryDx=0;entryDy=0;" edge="1" parent="WIyWlLk6GJQsqaUBKTNV-1" source="nfMXEgDPx6NqNk5T6Ewk-19" target="nfMXEgDPx6NqNk5T6Ewk-16">
          <mxGeometry relative="1" as="geometry" />
        </mxCell>
        <mxCell id="nfMXEgDPx6NqNk5T6Ewk-19" value="StatusMove" style="rounded=0;whiteSpace=wrap;html=1;strokeColor=#b85450;fillColor=#f8cecc;" vertex="1" parent="WIyWlLk6GJQsqaUBKTNV-1">
          <mxGeometry x="740" y="120" width="120" height="30" as="geometry" />
        </mxCell>
        <mxCell id="nfMXEgDPx6NqNk5T6Ewk-25" style="edgeStyle=orthogonalEdgeStyle;rounded=0;orthogonalLoop=1;jettySize=auto;html=1;exitX=0.5;exitY=0;exitDx=0;exitDy=0;" edge="1" parent="WIyWlLk6GJQsqaUBKTNV-1" source="nfMXEgDPx6NqNk5T6Ewk-23" target="nfMXEgDPx6NqNk5T6Ewk-17">
          <mxGeometry relative="1" as="geometry" />
        </mxCell>
        <mxCell id="nfMXEgDPx6NqNk5T6Ewk-23" value="PhysicalMove" style="rounded=0;whiteSpace=wrap;html=1;strokeColor=#6c8ebf;fillColor=#dae8fc;" vertex="1" parent="WIyWlLk6GJQsqaUBKTNV-1">
          <mxGeometry x="370" y="290" width="120" height="30" as="geometry" />
        </mxCell>
        <mxCell id="nfMXEgDPx6NqNk5T6Ewk-26" style="edgeStyle=orthogonalEdgeStyle;rounded=0;orthogonalLoop=1;jettySize=auto;html=1;exitX=0.5;exitY=0;exitDx=0;exitDy=0;" edge="1" parent="WIyWlLk6GJQsqaUBKTNV-1" source="nfMXEgDPx6NqNk5T6Ewk-24" target="nfMXEgDPx6NqNk5T6Ewk-17">
          <mxGeometry relative="1" as="geometry" />
        </mxCell>
        <mxCell id="nfMXEgDPx6NqNk5T6Ewk-24" value="SpecialMove" style="rounded=0;whiteSpace=wrap;html=1;strokeColor=#82b366;fillColor=#d5e8d4;" vertex="1" parent="WIyWlLk6GJQsqaUBKTNV-1">
          <mxGeometry x="740" y="290" width="120" height="30" as="geometry" />
        </mxCell>
        <mxCell id="nfMXEgDPx6NqNk5T6Ewk-29" style="edgeStyle=orthogonalEdgeStyle;rounded=0;orthogonalLoop=1;jettySize=auto;html=1;exitX=0.5;exitY=0;exitDx=0;exitDy=0;entryX=0.5;entryY=1;entryDx=0;entryDy=0;" edge="1" parent="WIyWlLk6GJQsqaUBKTNV-1" source="nfMXEgDPx6NqNk5T6Ewk-27" target="nfMXEgDPx6NqNk5T6Ewk-23">
          <mxGeometry relative="1" as="geometry" />
        </mxCell>
        <mxCell id="nfMXEgDPx6NqNk5T6Ewk-27" value="Facade" style="rounded=0;whiteSpace=wrap;html=1;strokeColor=#6c8ebf;fillColor=#dae8fc;" vertex="1" parent="WIyWlLk6GJQsqaUBKTNV-1">
          <mxGeometry x="440" y="370" width="120" height="30" as="geometry" />
        </mxCell>
        <mxCell id="nfMXEgDPx6NqNk5T6Ewk-30" style="edgeStyle=orthogonalEdgeStyle;rounded=0;orthogonalLoop=1;jettySize=auto;html=1;exitX=0.5;exitY=0;exitDx=0;exitDy=0;entryX=0.5;entryY=1;entryDx=0;entryDy=0;" edge="1" parent="WIyWlLk6GJQsqaUBKTNV-1" source="nfMXEgDPx6NqNk5T6Ewk-28" target="nfMXEgDPx6NqNk5T6Ewk-23">
          <mxGeometry relative="1" as="geometry" />
        </mxCell>
        <mxCell id="nfMXEgDPx6NqNk5T6Ewk-28" value="BulletSeed" style="rounded=0;whiteSpace=wrap;html=1;strokeColor=#6c8ebf;fillColor=#dae8fc;" vertex="1" parent="WIyWlLk6GJQsqaUBKTNV-1">
          <mxGeometry x="300" y="370" width="120" height="30" as="geometry" />
        </mxCell>
        <mxCell id="nfMXEgDPx6NqNk5T6Ewk-35" style="edgeStyle=orthogonalEdgeStyle;rounded=0;orthogonalLoop=1;jettySize=auto;html=1;exitX=0.5;exitY=0;exitDx=0;exitDy=0;entryX=0.5;entryY=1;entryDx=0;entryDy=0;" edge="1" parent="WIyWlLk6GJQsqaUBKTNV-1" source="nfMXEgDPx6NqNk5T6Ewk-31" target="nfMXEgDPx6NqNk5T6Ewk-24">
          <mxGeometry relative="1" as="geometry" />
        </mxCell>
        <mxCell id="nfMXEgDPx6NqNk5T6Ewk-31" value="FocusBlast" style="rounded=0;whiteSpace=wrap;html=1;strokeColor=#82b366;fillColor=#d5e8d4;" vertex="1" parent="WIyWlLk6GJQsqaUBKTNV-1">
          <mxGeometry x="600" y="370" width="120" height="30" as="geometry" />
        </mxCell>
        <mxCell id="nfMXEgDPx6NqNk5T6Ewk-39" style="edgeStyle=orthogonalEdgeStyle;rounded=0;orthogonalLoop=1;jettySize=auto;html=1;exitX=0.5;exitY=0;exitDx=0;exitDy=0;entryX=0.5;entryY=1;entryDx=0;entryDy=0;" edge="1" parent="WIyWlLk6GJQsqaUBKTNV-1" source="nfMXEgDPx6NqNk5T6Ewk-33" target="nfMXEgDPx6NqNk5T6Ewk-24">
          <mxGeometry relative="1" as="geometry" />
        </mxCell>
        <mxCell id="nfMXEgDPx6NqNk5T6Ewk-33" value="Venoshock" style="rounded=0;whiteSpace=wrap;html=1;strokeColor=#82b366;fillColor=#d5e8d4;" vertex="1" parent="WIyWlLk6GJQsqaUBKTNV-1">
          <mxGeometry x="880" y="370" width="120" height="30" as="geometry" />
        </mxCell>
        <mxCell id="nfMXEgDPx6NqNk5T6Ewk-38" style="edgeStyle=orthogonalEdgeStyle;rounded=0;orthogonalLoop=1;jettySize=auto;html=1;exitX=0.5;exitY=0;exitDx=0;exitDy=0;entryX=0.5;entryY=1;entryDx=0;entryDy=0;" edge="1" parent="WIyWlLk6GJQsqaUBKTNV-1" source="nfMXEgDPx6NqNk5T6Ewk-34" target="nfMXEgDPx6NqNk5T6Ewk-24">
          <mxGeometry relative="1" as="geometry" />
        </mxCell>
        <mxCell id="nfMXEgDPx6NqNk5T6Ewk-34" value="LeafTornado" style="rounded=0;whiteSpace=wrap;html=1;strokeColor=#82b366;fillColor=#d5e8d4;" vertex="1" parent="WIyWlLk6GJQsqaUBKTNV-1">
          <mxGeometry x="740" y="370" width="120" height="30" as="geometry" />
        </mxCell>
        <mxCell id="nfMXEgDPx6NqNk5T6Ewk-45" style="edgeStyle=orthogonalEdgeStyle;rounded=0;orthogonalLoop=1;jettySize=auto;html=1;exitX=0;exitY=0.5;exitDx=0;exitDy=0;entryX=1;entryY=0.5;entryDx=0;entryDy=0;" edge="1" parent="WIyWlLk6GJQsqaUBKTNV-1" source="nfMXEgDPx6NqNk5T6Ewk-41" target="nfMXEgDPx6NqNk5T6Ewk-19">
          <mxGeometry relative="1" as="geometry" />
        </mxCell>
        <mxCell id="nfMXEgDPx6NqNk5T6Ewk-41" value="Confide" style="rounded=0;whiteSpace=wrap;html=1;strokeColor=#b85450;fillColor=#f8cecc;" vertex="1" parent="WIyWlLk6GJQsqaUBKTNV-1">
          <mxGeometry x="941" y="120" width="120" height="30" as="geometry" />
        </mxCell>
        <mxCell id="nfMXEgDPx6NqNk5T6Ewk-47" style="edgeStyle=orthogonalEdgeStyle;rounded=0;orthogonalLoop=1;jettySize=auto;html=1;exitX=0;exitY=0.5;exitDx=0;exitDy=0;entryX=1;entryY=0.5;entryDx=0;entryDy=0;" edge="1" parent="WIyWlLk6GJQsqaUBKTNV-1" source="nfMXEgDPx6NqNk5T6Ewk-42" target="nfMXEgDPx6NqNk5T6Ewk-19">
          <mxGeometry relative="1" as="geometry" />
        </mxCell>
        <mxCell id="nfMXEgDPx6NqNk5T6Ewk-42" value="Minimize" style="rounded=0;whiteSpace=wrap;html=1;strokeColor=#b85450;fillColor=#f8cecc;" vertex="1" parent="WIyWlLk6GJQsqaUBKTNV-1">
          <mxGeometry x="941" y="170" width="120" height="30" as="geometry" />
        </mxCell>
        <mxCell id="nfMXEgDPx6NqNk5T6Ewk-51" style="edgeStyle=orthogonalEdgeStyle;rounded=0;orthogonalLoop=1;jettySize=auto;html=1;exitX=0;exitY=0.5;exitDx=0;exitDy=0;entryX=1;entryY=0.5;entryDx=0;entryDy=0;" edge="1" parent="WIyWlLk6GJQsqaUBKTNV-1" source="nfMXEgDPx6NqNk5T6Ewk-43" target="nfMXEgDPx6NqNk5T6Ewk-19">
          <mxGeometry relative="1" as="geometry" />
        </mxCell>
        <mxCell id="nfMXEgDPx6NqNk5T6Ewk-43" value="SleepPowder" style="rounded=0;whiteSpace=wrap;html=1;strokeColor=#b85450;fillColor=#f8cecc;" vertex="1" parent="WIyWlLk6GJQsqaUBKTNV-1">
          <mxGeometry x="941" y="270" width="121" height="30" as="geometry" />
        </mxCell>
        <mxCell id="nfMXEgDPx6NqNk5T6Ewk-50" style="edgeStyle=orthogonalEdgeStyle;rounded=0;orthogonalLoop=1;jettySize=auto;html=1;exitX=0;exitY=0.5;exitDx=0;exitDy=0;entryX=1;entryY=0.5;entryDx=0;entryDy=0;" edge="1" parent="WIyWlLk6GJQsqaUBKTNV-1" source="nfMXEgDPx6NqNk5T6Ewk-44" target="nfMXEgDPx6NqNk5T6Ewk-19">
          <mxGeometry relative="1" as="geometry" />
        </mxCell>
        <mxCell id="nfMXEgDPx6NqNk5T6Ewk-44" value="StunSpore" style="rounded=0;whiteSpace=wrap;html=1;strokeColor=#b85450;fillColor=#f8cecc;" vertex="1" parent="WIyWlLk6GJQsqaUBKTNV-1">
          <mxGeometry x="941" y="220" width="120" height="30" as="geometry" />
        </mxCell>
      </root>
    </mxGraphModel>
  </diagram>
</mxfile>
